<?xml version="1.0" encoding="UTF-8"?>
<svg id="Layer_1" xmlns="http://www.w3.org/2000/svg" xmlns:xlink="http://www.w3.org/1999/xlink" version="1.1" viewBox="0 0 1158.6 1013.9">
  <!-- Generator: Adobe Illustrator 29.1.0, SVG Export Plug-In . SVG Version: 2.1.0 Build 142)  -->
  <defs>
    <style>
      .st0 {
        fill: url(#linear-gradient1);
      }

      .st1 {
        fill: #8e8e8e;
      }

      .st2 {
        fill: url(#linear-gradient);
      }

      .st3 {
        fill: #66edfe;
      }

      .st4 {
        fill: #5fdbf5;
      }
    </style>
    <linearGradient id="linear-gradient" x1="639" y1="227.9" x2="448.8" y2="530.4" gradientUnits="userSpaceOnUse">
      <stop offset="0" stop-color="#000086" stop-opacity="0"/>
      <stop offset=".2" stop-color="#000085" stop-opacity="0"/>
      <stop offset=".4" stop-color="#000084" stop-opacity=".2"/>
      <stop offset=".7" stop-color="#000083" stop-opacity=".4"/>
      <stop offset="1" stop-color="#000081" stop-opacity=".6"/>
      <stop offset="1" stop-color="#000081" stop-opacity=".7"/>
    </linearGradient>
    <linearGradient id="linear-gradient1" x1="492.5" y1="345.4" x2="669.4" y2="596.3" xlink:href="#linear-gradient"/>
  </defs>
  <g>
    <path class="st4" d="M238.2,681c-10.8,0-21,2.6-30,7v-77.4l-38.1,13.3v204.2h38.1v-79.1c0-16.6,13.5-30,30-30s30,13.5,30,30v79.1h38.1v-79.1c0-37.6-30.5-68.2-68.2-68.2Z"/>
    <path class="st1" d="M456.2,688.8c-11.1-6.4-24-10.1-37.8-10.1-41.9,0-75.9,34-75.9,75.9s34,75.9,75.9,75.9,75.9-34,75.9-75.9v-130.6l-38.1-13.3v78.2ZM418.4,792.4c-20.8,0-37.8-17-37.8-37.8s17-37.8,37.8-37.8,37.8,17,37.8,37.8-17,37.8-37.8,37.8Z"/>
    <path class="st1" d="M912.6,678.7c-41.9,0-75.9,34-75.9,75.9h0v130.6l38.1,13.3v-78.2c11.1,6.4,24,10.1,37.8,10.1,41.9,0,75.9-34,75.9-75.9s-34-75.9-75.9-75.9ZM912.6,792.4c-20.8,0-37.8-17-37.8-37.8h0c0-20.9,17-37.8,37.8-37.8s37.8,17,37.8,37.8-17,37.8-37.8,37.8Z"/>
    <path class="st1" d="M723.1,678.7c-41.9,0-75.9,34-75.9,75.9s34,75.9,75.9,75.9,75.9-34,75.9-75.9-34-75.9-75.9-75.9ZM723.1,792.4c-20.8,0-37.8-17-37.8-37.8s17-37.8,37.8-37.8,37.8,17,37.8,37.8-17,37.8-37.8,37.8Z"/>
    <path class="st1" d="M539.4,766v64.6h38.1v-64.6c0-27.9,22-50.6,49.5-52.3v-38.3c-48.7,1.6-87.6,41.5-87.6,90.5Z"/>
  </g>
  <g>
    <path class="st3" d="M711.4,323.3l-64.9-102.1-41.5,65.3,47.2,74.4c17.9,28.2,17.9,64.5,0,92.7-16.2,25.5-42.8,40.1-73,40.1s-56.8-14.6-73-40.1c-17.9-28.2-17.9-64.5,0-92.7l114.4-180.3-41.4-65.2-132.1,208c-32.5,51.2-32.5,116.6,0,167.8h0c30.7,48.4,81.4,72.6,132.1,72.6s101.4-24.2,132.1-72.6h0c32.5-51.2,32.5-116.6,0-167.8Z"/>
    <path class="st2" d="M506.3,453.5c-17.9-28.2-17.9-64.5,0-92.7l71.9-113.3,42.5-67-41.4-65.2-123.1,193.7c0,0,0,.2.1.3-18.5,32.1-22.6,72.1-7.7,109.2,25.2,62.3,94.9,93.2,157.6,71-8.5,2.7-17.6,4.2-27,4.2-30.2,0-56.8-14.6-73-40.1Z"/>
    <path class="st0" d="M663,378.3c-1.9-3-4.5-7.2-7.6-12.1,14.7,27.3,13.7,61-3.1,87.4-11.1,17.5-27.2,29.9-46,35.9-62.7,22.3-132.4-8.6-157.6-71-15-37.1-10.9-77.1,7.7-109.2,0,0,0-.2-.1-.3l-9,14.2c-32.5,51.2-32.5,116.6,0,167.8h0c18.7,29.5,44.9,50,74,61.5,33.4,12.4,72,9.7,104.6-10.7,55.5-34.9,72.2-108.1,37.3-163.6Z"/>
  </g>
</svg>